# xmcd CD database file
#
# Track frame offsets:
#	187
#	19387
#	32567
#	49267
#	78767
#	96649
#	115002
#	128419
#	142857
#	159497
#	171944
#	187807
#	205207
#
# Disc length: 2902 seconds
#
# Revision: 6
# Processed by: cddbd v1.5.2PL0 Copyright (c) Steve Scherf et al.
# Submitted via: CDex 1.51
#
DISCID=a20b540d
DTITLE=Taj Mahal - Dancing The Blues
DYEAR=1993
DGENRE=Blues
TTITLE0=Blue's Ain't Nothin'
TTITLE1=Hard Way
TTITLE2=Strut
TTITLE3=Going To The River
TTITLE4=Mockingbird
TTITLE5=Blue Light Boogie
TTITLE6=The Hoochi Coochi Coo
TTITLE7=That's How Strong My Love Is
TTITLE8=Down Home Girl
TTITLE9=Stranger In My Own Home Town
TTITLE10=Sitting On The Top Of The World
TTITLE11=I'm Ready
TTITLE12=I Can't Help Myself (Sugarpie Honeybunch)
EXTD=(c) 1993 Private Music  01005-82112-2\n\nTaj Mahal: vocals, harmonica, National steel guitar\n[too many other musicians for me to list, sorry]\nSpecial guest:\nEtta James: vocals\n\nEntry updated: Mike Lempriere <mikel@speakeasy.org> 21-May-1997\n Y
EXTD=EAR: 1993
EXTT0=
EXTT1=
EXTT2=
EXTT3=
EXTT4=
EXTT5=
EXTT6=
EXTT7=
EXTT8=
EXTT9=
EXTT10=
EXTT11=
EXTT12=
PLAYORDER=
